<svg width="192" height="32" viewBox="0 0 192 32" fill="none" xmlns="http://www.w3.org/2000/svg">
<path d="M18.9691 24.2944C18.7393 24.96 18.4807 25.5616 18.1934 26.0992C17.5422 27.3024 16.5846 28.288 15.3205 29.056C14.0756 29.7984 12.7062 30.1696 11.2122 30.1696C8.62663 30.1696 6.51983 29.3376 4.89185 27.6736C2.36369 24.9856 1.09961 21.1712 1.09961 16.2304C1.09961 11.7248 2.04767 8.12797 3.94379 5.43997C5.70584 2.95677 7.98501 1.71517 10.7813 1.71517C11.7581 1.71517 12.6296 1.86877 13.3957 2.17598C14.1809 2.48317 14.7651 2.80317 15.1481 3.13597C15.5503 3.46877 16.0962 3.98077 16.7857 4.67197C17.1687 3.98077 17.5518 3.45597 17.9349 3.09757C18.3371 3.14877 18.6244 3.28957 18.7967 3.51997C18.7967 3.72477 18.7584 4.21117 18.6818 4.97918C18.6244 5.72157 18.5956 6.29757 18.5956 6.70717C18.5956 6.98877 18.6148 7.43677 18.6531 8.05117C18.7105 8.66557 18.768 9.29277 18.8255 9.93278C18.8829 10.5472 18.9116 10.88 18.9116 10.9312C18.7776 11.1104 18.6435 11.2128 18.5094 11.2384C18.3754 11.264 18.203 11.2384 17.9923 11.1616C17.4752 8.88317 16.9772 7.33437 16.4984 6.51517C15.8855 5.46557 15.1481 4.63357 14.2863 4.01917C13.4435 3.40477 12.5625 3.09757 11.6432 3.09757C10.36 3.09757 9.18206 3.59677 8.10951 4.59517C7.05611 5.56797 6.20381 7.11678 5.55262 9.24158C4.97804 10.9824 4.69075 13.2096 4.69075 15.9232C4.69075 18.7392 4.97804 21.056 5.55262 22.8736C6.01228 24.3328 6.80712 25.6384 7.93713 26.7904C9.06714 27.9168 10.36 28.48 11.8156 28.48C14.4012 28.48 16.5367 26.8928 18.2221 23.7184C18.2413 23.7184 18.27 23.7184 18.3083 23.7184C18.3658 23.6928 18.4041 23.68 18.4233 23.68C18.6914 23.68 18.8733 23.8848 18.9691 24.2944Z" fill="white"/>
<path d="M30.6942 29.1712C30.6942 29.3248 30.6559 29.4912 30.5792 29.6704H29.6312C29.2673 29.6704 28.6161 29.6576 27.6776 29.632C26.7391 29.5808 26.222 29.5552 26.1262 29.5552C25.6091 29.5552 24.7951 29.5936 23.6843 29.6704C22.5734 29.7216 21.836 29.7472 21.4721 29.7472H20.9837C20.9837 29.696 20.9742 29.632 20.955 29.5552C20.9358 29.4528 20.9263 29.3504 20.9263 29.248C20.9263 29.0176 20.955 28.8256 21.0125 28.672C21.2998 28.6464 21.5583 28.6208 21.7881 28.5952C22.0371 28.544 22.2478 28.48 22.4202 28.4032C22.5926 28.3264 22.7362 28.2624 22.8511 28.2112C22.9852 28.16 23.1097 28.096 23.2246 28.0192C23.3395 27.9168 23.4161 27.8528 23.4544 27.8272C23.5119 27.776 23.5789 27.6992 23.6555 27.5968C23.7321 27.4944 23.78 27.4304 23.7992 27.4048C24.0099 26.8928 24.1439 26.1248 24.2014 25.1008C24.2588 22.4128 24.2876 20.6336 24.2876 19.7632C24.2876 17.8176 24.2684 15.5648 24.2301 13.0048C24.211 9.62557 24.1822 7.55197 24.1439 6.78398C24.0482 5.14557 23.7321 4.05757 23.1959 3.51997C22.966 3.28957 22.2191 3.11037 20.955 2.98237C20.9167 2.72637 20.8975 2.55997 20.8975 2.48318C20.8975 2.32957 20.9454 2.16317 21.0412 1.98398H21.6732C22.0563 1.98398 22.7362 2.00957 23.713 2.06077C24.6898 2.11198 25.2835 2.13758 25.4942 2.13758C25.8006 2.13758 26.4614 2.11198 27.4765 2.06077C28.4916 1.98397 29.2098 1.94557 29.6312 1.94557H30.4643C30.5601 2.07357 30.608 2.22718 30.608 2.40637C30.608 2.58558 30.5792 2.75198 30.5218 2.90557C29.1619 3.13597 28.3096 3.46878 27.9649 3.90398C27.6201 4.28798 27.4478 4.97917 27.4478 5.97757V15.7312C27.4478 19.6736 27.4669 22.8736 27.5052 25.3312C27.6776 26.56 28.0032 27.5456 28.482 28.288C28.98 28.4416 29.6886 28.5568 30.608 28.6336C30.6654 28.7872 30.6942 28.9664 30.6942 29.1712Z" fill="white"/>
<path d="M53.8577 2.40637C53.8577 2.48317 53.8385 2.58558 53.8002 2.71357C53.7619 2.81598 53.7428 2.87998 53.7428 2.90557C52.4978 3.28957 51.7317 3.69917 51.4444 4.13437C51.0039 4.74877 50.6592 5.47837 50.4102 6.32317L43.0268 30.1312C42.9693 30.3104 42.8161 30.4 42.5671 30.4C42.4905 30.4 42.4331 30.3872 42.3948 30.3616C42.3756 30.336 42.3565 30.2976 42.3373 30.2464C42.3181 30.2208 42.2894 30.1952 42.2511 30.1696C41.983 28.8128 40.8817 25.024 38.9473 18.8032L36.5628 11.1232C35.2795 7.00157 34.5038 4.67197 34.2357 4.13437C33.4121 3.51998 32.6077 3.08477 31.8225 2.82877C31.765 2.67517 31.7363 2.52157 31.7363 2.36797C31.7363 2.26557 31.7746 2.11197 31.8512 1.90717H32.9716C33.4504 1.90717 34.1016 1.91997 34.9252 1.94557C35.7488 1.97117 36.2467 1.98398 36.4191 1.98398C36.9745 1.98398 37.7119 1.95837 38.6312 1.90717C39.5697 1.85597 40.1635 1.83037 40.4124 1.83037H41.1307C41.2264 1.85597 41.2743 1.99677 41.2743 2.25277C41.2743 2.40638 41.236 2.58558 41.1594 2.79037C40.9296 2.79037 40.6997 2.81597 40.4699 2.86718C40.2401 2.89277 40.0102 2.93117 39.7804 2.98237C39.5506 3.03357 39.3878 3.07197 39.292 3.09757C38.7557 3.48157 38.4397 4.19837 38.344 5.24797L43.9174 24.0256L48.3704 9.27997C48.8301 7.79517 49.0599 6.63037 49.0599 5.78557C49.0599 4.81277 48.8205 4.00637 48.3417 3.36637C47.6905 3.08477 47.0297 2.89277 46.3594 2.79037C46.3594 2.73917 46.3498 2.67517 46.3306 2.59837C46.3115 2.49597 46.3019 2.41917 46.3019 2.36797C46.3019 2.34238 46.3498 2.17598 46.4456 1.86877H46.9627C47.0201 1.86877 47.1829 1.88157 47.4511 1.90717C47.7192 1.93277 48.1118 1.97117 48.629 2.02237C49.1652 2.04797 49.7781 2.06077 50.4676 2.06077C50.6209 2.06077 50.9752 2.04797 51.5306 2.02237C52.086 1.99678 52.4882 1.98398 52.7372 1.98398H53.714C53.8098 2.00957 53.8577 2.15037 53.8577 2.40637Z" fill="white"/>
<path d="M64.4172 29.1712C64.4172 29.3248 64.3789 29.4912 64.3023 29.6704H63.3542C62.9903 29.6704 62.3391 29.6576 61.4006 29.632C60.4621 29.5808 59.945 29.5552 59.8493 29.5552C59.3321 29.5552 58.5181 29.5936 57.4073 29.6704C56.2964 29.7216 55.559 29.7472 55.1951 29.7472H54.7067C54.7067 29.696 54.6972 29.632 54.678 29.5552C54.6589 29.4528 54.6493 29.3504 54.6493 29.248C54.6493 29.0176 54.678 28.8256 54.7355 28.672C55.0228 28.6464 55.2813 28.6208 55.5112 28.5952C55.7601 28.544 55.9708 28.48 56.1432 28.4032C56.3156 28.3264 56.4592 28.2624 56.5741 28.2112C56.7082 28.16 56.8327 28.096 56.9476 28.0192C57.0625 27.9168 57.1391 27.8528 57.1774 27.8272C57.2349 27.776 57.3019 27.6992 57.3786 27.5968C57.4552 27.4944 57.503 27.4304 57.5222 27.4048C57.7329 26.8928 57.8669 26.1248 57.9244 25.1008C57.9819 22.4128 58.0106 20.6336 58.0106 19.7632C58.0106 17.8176 57.9914 15.5648 57.9531 13.0048C57.934 9.62557 57.9053 7.55197 57.8669 6.78398C57.7712 5.14557 57.4552 4.05757 56.9189 3.51997C56.6891 3.28957 55.9421 3.11037 54.678 2.98237C54.6397 2.72637 54.6206 2.55997 54.6206 2.48318C54.6206 2.32957 54.6684 2.16317 54.7642 1.98398H55.3962C55.7793 1.98398 56.4592 2.00957 57.436 2.06077C58.4128 2.11198 59.0065 2.13758 59.2172 2.13758C59.5237 2.13758 60.1844 2.11198 61.1995 2.06077C62.2146 1.98397 62.9328 1.94557 63.3542 1.94557H64.1873C64.2831 2.07357 64.331 2.22718 64.331 2.40637C64.331 2.58558 64.3023 2.75198 64.2448 2.90557C62.885 3.13597 62.0327 3.46878 61.6879 3.90398C61.3432 4.28798 61.1708 4.97917 61.1708 5.97757V15.7312C61.1708 19.6736 61.1899 22.8736 61.2282 25.3312C61.4006 26.56 61.7262 27.5456 62.205 28.288C62.703 28.4416 63.4117 28.5568 64.331 28.6336C64.3885 28.7872 64.4172 28.9664 64.4172 29.1712Z" fill="white"/>
<path d="M84.5354 24.2944C84.3056 24.96 84.047 25.5616 83.7597 26.0992C83.1085 27.3024 82.1509 28.288 80.8868 29.056C79.6419 29.7984 78.2725 30.1696 76.7785 30.1696C74.1929 30.1696 72.0861 29.3376 70.4581 27.6736C67.93 24.9856 66.6659 21.1712 66.6659 16.2304C66.6659 11.7248 67.614 8.12797 69.5101 5.43997C71.2721 2.95677 73.5513 1.71517 76.3476 1.71517C77.3244 1.71517 78.1958 1.86877 78.962 2.17598C79.7472 2.48317 80.3314 2.80317 80.7144 3.13597C81.1166 3.46877 81.6625 3.98077 82.352 4.67197C82.735 3.98077 83.1181 3.45597 83.5011 3.09757C83.9034 3.14877 84.1906 3.28957 84.363 3.51997C84.363 3.72477 84.3247 4.21117 84.2481 4.97918C84.1906 5.72157 84.1619 6.29757 84.1619 6.70717C84.1619 6.98877 84.1811 7.43677 84.2194 8.05117C84.2768 8.66557 84.3343 9.29277 84.3918 9.93278C84.4492 10.5472 84.4779 10.88 84.4779 10.9312C84.3439 11.1104 84.2098 11.2128 84.0757 11.2384C83.9417 11.264 83.7693 11.2384 83.5586 11.1616C83.0415 8.88317 82.5435 7.33437 82.0647 6.51517C81.4518 5.46557 80.7144 4.63357 79.8526 4.01917C79.0098 3.40477 78.1288 3.09757 77.2095 3.09757C75.9262 3.09757 74.7484 3.59677 73.6758 4.59517C72.6224 5.56797 71.7701 7.11678 71.1189 9.24158C70.5443 10.9824 70.257 13.2096 70.257 15.9232C70.257 18.7392 70.5443 21.056 71.1189 22.8736C71.5786 24.3328 72.3734 25.6384 73.5034 26.7904C74.6334 27.9168 75.9262 28.48 77.3819 28.48C79.9675 28.48 82.103 26.8928 83.7884 23.7184C83.8076 23.7184 83.8363 23.7184 83.8746 23.7184C83.9321 23.6928 83.9704 23.68 83.9895 23.68C84.2577 23.68 84.4396 23.8848 84.5354 24.2944Z" fill="white"/>
<path d="M103.443 8.78077C103.29 8.90877 103.165 8.97277 103.069 8.97277C102.897 8.97277 102.772 8.95997 102.696 8.93437C101.776 6.45117 100.713 4.64637 99.5068 3.51997C99.277 3.28957 98.9514 3.17437 98.5301 3.17437L93.6174 3.13597C93.3684 3.13597 93.2152 3.17437 93.1577 3.25117C93.1003 3.30237 93.0715 3.48157 93.0715 3.78877V14.7328C93.378 14.7584 93.8185 14.7712 94.3931 14.7712C95.8487 14.7712 96.8255 14.3104 97.3234 13.3888C97.4575 13.1584 97.5628 12.864 97.6395 12.5056C97.7352 12.1472 97.8022 11.8656 97.8406 11.6608C97.8789 11.4304 97.9172 11.0976 97.9555 10.6624C97.9938 10.2272 98.0129 9.99677 98.0129 9.97118C98.2428 9.89437 98.3673 9.85597 98.3864 9.85597C98.5205 9.85597 98.6641 9.90717 98.8173 10.0096C98.8173 10.6496 98.7982 11.6608 98.7599 13.0432C98.7216 14.4256 98.7024 15.232 98.7024 15.4624C98.7024 15.7696 98.712 16.4736 98.7312 17.5744C98.7695 18.6496 98.7886 19.3664 98.7886 19.7248V21.0688C98.712 21.1712 98.5684 21.2224 98.3577 21.2224C98.2619 21.2224 98.147 21.1968 98.0129 21.1456C97.9746 20.7616 97.9076 20.1472 97.8118 19.3024C97.7161 18.304 97.2851 17.3952 96.519 16.576C96.1168 16.1408 95.3124 15.9232 94.1058 15.9232C93.8185 15.9232 93.5312 15.9616 93.2439 16.0384C93.1481 16.4992 93.0811 17.9072 93.0428 20.2624C93.0236 21.5424 93.0141 23.3856 93.0141 25.792C93.2439 27.072 93.6653 27.9168 94.2781 28.3264C95.1209 28.5312 95.887 28.6336 96.5765 28.6336C96.6339 28.8128 96.6627 28.992 96.6627 29.1712C96.6627 29.376 96.6339 29.5424 96.5765 29.6704H95.9157C95.571 29.6704 94.8815 29.6704 93.8472 29.6704C92.8321 29.6448 92.1426 29.632 91.7787 29.632C91.434 29.632 90.7828 29.6448 89.8251 29.6704C88.8867 29.7216 88.1205 29.7472 87.5268 29.7472H86.3489C86.2532 29.568 86.2053 29.4016 86.2053 29.248C86.2053 29.0688 86.2436 28.9024 86.3202 28.7488C86.3585 28.7488 87.2587 28.5696 89.0207 28.2112C89.4038 27.52 89.6719 26.2528 89.8251 24.4096V9.66397C89.8251 7.82077 89.7868 6.54077 89.7102 5.82397C89.6145 5.00477 89.2889 4.24957 88.7334 3.55838C88.6568 3.45598 88.5036 3.37917 88.2738 3.32797C88.0439 3.27677 87.7183 3.22557 87.297 3.17437C86.8948 3.12317 86.6171 3.08477 86.4638 3.05918C86.4064 2.93118 86.3776 2.75198 86.3776 2.52158C86.3776 2.39358 86.4255 2.22718 86.5213 2.02237C87.0384 2.02237 87.9673 2.03517 89.308 2.06077C90.6487 2.08637 91.5297 2.09917 91.9511 2.09917C93.2343 2.09917 95.0155 2.08637 97.2947 2.06077C99.0184 2.03517 100.455 2.02237 101.604 2.02237C102.217 2.02237 102.696 2.04797 103.041 2.09917C103.117 2.38077 103.165 2.61117 103.184 2.79037L103.443 8.78077Z" fill="white"/>
<path d="M125.185 15.3856C125.185 19.4048 124.314 22.7968 122.571 25.5616C121.537 27.1744 120.301 28.3776 118.865 29.1712C117.543 29.9136 116.193 30.2848 114.814 30.2848C112.535 30.2848 110.514 29.3632 108.752 27.52C107.584 26.2656 106.665 24.6528 105.994 22.6816C105.324 20.6848 104.989 18.5856 104.989 16.384C104.989 13.6448 105.496 11.072 106.511 8.66557C107.335 6.66877 108.561 4.99198 110.189 3.63517C111.836 2.27838 113.598 1.59998 115.475 1.59998C117.179 1.59998 118.865 2.25278 120.531 3.55838C123.634 6.04158 125.185 9.98398 125.185 15.3856ZM121.623 14.6176C121.623 10.5984 121.01 7.57757 119.784 5.55517C119.286 4.71038 118.635 4.04478 117.831 3.55838C117.045 3.04637 116.212 2.79037 115.331 2.79037C114.105 2.79037 112.966 3.31517 111.912 4.36477C110.878 5.38877 110.074 6.93757 109.499 9.01117C108.944 11.0592 108.666 13.4528 108.666 16.192C108.666 18.112 108.829 20.0192 109.154 21.9136C109.499 23.7824 109.968 25.2672 110.562 26.368C111.539 28.1856 112.995 29.0944 114.929 29.0944C116.289 29.0944 117.448 28.608 118.405 27.6352C119.363 26.7136 120.139 25.0624 120.732 22.6816C121.326 20.2752 121.623 17.5872 121.623 14.6176Z" fill="white"/>
<path d="M147.682 29.2096C147.682 29.3888 147.624 29.5552 147.51 29.7088H144.292C143.487 29.7088 142.855 29.6704 142.396 29.5936C141.917 29.5168 141.63 28.992 141.534 28.0192C141.132 24.1024 140.528 21.2992 139.724 19.6096C139.054 18.2272 138.134 17.1904 136.966 16.4992C136.391 16.1408 135.625 15.9616 134.668 15.9616C134.323 15.9616 134.074 15.9744 133.921 16L133.949 25.6384C133.949 26.9184 134.361 27.8272 135.185 28.3648C136.219 28.6208 136.755 28.7488 136.794 28.7488C136.87 28.9536 136.909 29.1456 136.909 29.3248C136.909 29.4016 136.87 29.5424 136.794 29.7472C136.257 29.7472 135.587 29.7216 134.783 29.6704C133.978 29.6448 133.26 29.632 132.628 29.632C132.283 29.632 131.412 29.6448 130.014 29.6704C128.615 29.7216 127.868 29.7472 127.773 29.7472C127.696 29.4912 127.658 29.3376 127.658 29.2864C127.658 29.1328 127.706 28.9536 127.801 28.7488C128.127 28.7232 128.673 28.6336 129.439 28.48C130.109 28.1216 130.502 27.264 130.617 25.9072C130.693 25.1392 130.732 21.7088 130.732 15.616C130.732 9.85597 130.674 6.48957 130.559 5.51678C130.253 4.64637 129.851 3.95517 129.353 3.44317C128.951 3.34077 128.338 3.22557 127.514 3.09757C127.476 2.89277 127.457 2.71357 127.457 2.55997C127.457 2.53437 127.505 2.36797 127.6 2.06077C127.639 2.06077 127.888 2.07357 128.347 2.09917C128.807 2.12477 129.123 2.13758 129.295 2.13758C129.678 2.13758 130.263 2.15038 131.048 2.17598C131.833 2.20157 132.274 2.21437 132.369 2.21437C132.791 2.21437 133.586 2.17597 134.754 2.09917C135.941 1.99677 136.928 1.94557 137.713 1.94557C139.283 1.94557 140.433 2.08637 141.16 2.36797C142.195 2.80318 143.047 3.68638 143.717 5.01757C144.407 6.32317 144.752 7.75677 144.752 9.31837C144.752 11.4176 144.158 13.0688 142.97 14.272C142.319 14.9632 141.266 15.424 139.81 15.6544C139.37 15.7056 138.977 15.7824 138.632 15.8848C138.92 16.0384 139.312 16.2432 139.81 16.4992C140.844 16.96 141.515 17.3824 141.821 17.7664C142.549 18.6624 143.258 20.1984 143.947 22.3744C144.388 23.9104 144.79 25.5104 145.154 27.1744C145.307 27.5584 145.47 27.8784 145.642 28.1344C145.987 28.4672 146.619 28.6336 147.538 28.6336C147.634 28.8128 147.682 29.0048 147.682 29.2096ZM141.247 8.85757C141.247 7.50077 140.978 6.31037 140.442 5.28637C139.963 4.39037 139.379 3.80157 138.69 3.51997C138 3.21277 136.947 3.05918 135.53 3.05918C134.706 3.05918 134.218 3.13597 134.064 3.28957C133.93 3.41757 133.863 3.71197 133.863 4.17277V11.4304L133.892 14.7712C134.179 14.8224 134.581 14.848 135.099 14.848C136.363 14.848 137.359 14.7456 138.086 14.5408C138.929 14.2848 139.667 13.5808 140.299 12.4288C140.931 11.2768 141.247 10.0864 141.247 8.85757Z" fill="white"/>
<path d="M171.609 17.1904C171.609 17.3184 171.542 17.5104 171.407 17.7664C170.507 17.8688 169.885 17.9968 169.54 18.1504C169.31 18.2528 169.157 18.3808 169.08 18.5344C169.023 18.688 168.975 18.9696 168.937 19.3792C168.86 20.5568 168.822 22.08 168.822 23.9488C168.822 25.3312 169.1 26.5472 169.655 27.5968C169.578 28.032 169.444 28.2496 169.253 28.2496C169.214 28.2496 168.956 28.1216 168.477 27.8656C168.017 27.584 167.654 27.4432 167.385 27.4432C166.887 27.4432 166.38 27.5584 165.863 27.7888C165.729 27.8656 165.269 28.1472 164.484 28.6336C163.718 29.12 162.952 29.4912 162.185 29.7472C161.438 30.0288 160.605 30.1696 159.686 30.1696C157.713 30.1696 155.99 29.6064 154.515 28.48C153.117 27.4304 151.929 25.8176 150.952 23.6416C149.995 21.44 149.516 18.9568 149.516 16.192C149.516 11.8912 150.493 8.39677 152.446 5.70878C154.362 3.07197 156.784 1.75357 159.715 1.75357C161.707 1.75357 163.603 2.62397 165.403 4.36477C165.767 3.49437 166.064 2.91837 166.294 2.63677C166.504 2.58557 166.715 2.57277 166.926 2.59837C167.06 2.62397 167.261 2.76477 167.529 3.02078C167.318 4.76157 167.213 6.04157 167.213 6.86077C167.213 7.52637 167.443 8.62717 167.903 10.1632C167.903 10.2912 167.826 10.4192 167.673 10.5472C167.539 10.6752 167.376 10.7392 167.184 10.7392C166.954 10.5088 166.677 9.99677 166.351 9.20317C165.623 7.48797 164.742 6.01597 163.708 4.78718C162.635 3.48157 161.381 2.82877 159.945 2.82877C158.527 2.82877 157.254 3.46877 156.124 4.74877C155.013 6.02877 154.218 7.83357 153.739 10.1632C153.394 11.8528 153.222 13.696 153.222 15.6928C153.222 18.688 153.548 21.1584 154.199 23.104C154.754 24.7168 155.702 26.2272 157.043 27.6352C157.694 28.3776 158.192 28.8128 158.537 28.9408C158.92 29.0432 159.37 29.0944 159.887 29.0944C160.998 29.0944 162.099 28.7616 163.191 28.096C164.129 27.5072 164.848 26.4832 165.346 25.024C165.633 24.2304 165.777 23.3856 165.777 22.4896C165.777 20.9536 165.729 19.968 165.633 19.5328C165.461 18.7648 165.03 18.2656 164.34 18.0352C164.206 17.984 163.852 17.9328 163.277 17.8816C162.722 17.8304 162.406 17.792 162.329 17.7664C162.252 17.5616 162.214 17.3696 162.214 17.1904C162.214 17.0368 162.262 16.8576 162.358 16.6528H163.306C163.517 16.6528 163.976 16.6784 164.685 16.7296C165.413 16.7552 165.997 16.768 166.437 16.768C166.84 16.768 167.491 16.7552 168.391 16.7296C169.291 16.6784 170.057 16.6528 170.689 16.6528H171.465C171.561 16.9088 171.609 17.088 171.609 17.1904Z" fill="white"/>
<path d="M191.9 23.3728C191.9 26.7008 191.88 28.6208 191.842 29.1328C191.823 29.4144 191.785 29.6192 191.727 29.7472C191.593 29.7984 191.335 29.824 190.952 29.824C189.247 29.824 187.686 29.7984 186.269 29.7472C184.851 29.7216 183.75 29.696 182.965 29.6704C182.18 29.6192 181.701 29.5936 181.528 29.5936C180.896 29.5936 180.178 29.5808 179.374 29.5552C178.569 29.5296 178.09 29.5168 177.937 29.5168C177.688 29.5168 176.999 29.5424 175.869 29.5936C174.758 29.6192 174.04 29.632 173.714 29.632H172.766C172.67 29.4272 172.622 29.248 172.622 29.0944C172.622 28.9408 172.67 28.736 172.766 28.48C174.222 28.3776 175.083 28.1856 175.352 27.904C175.447 27.6992 175.572 27.2 175.725 26.4064C175.878 25.6128 175.965 24.8704 175.984 24.1792C176.022 22.8992 176.041 21.1584 176.041 18.9568V11.0464C176.041 8.40957 176.012 6.68158 175.955 5.86238C175.897 5.50398 175.84 5.20958 175.783 4.97918C175.744 4.72317 175.677 4.50557 175.581 4.32637C175.486 4.14717 175.419 4.03197 175.38 3.98077C175.361 3.90397 175.285 3.80157 175.151 3.67357C175.016 3.54557 174.94 3.46877 174.921 3.44317C174.767 3.31517 174.394 3.22557 173.8 3.17437C173.226 3.09757 172.9 3.04638 172.823 3.02078C172.728 2.84157 172.68 2.66237 172.68 2.48318C172.68 2.35517 172.728 2.20157 172.823 2.02237H173.8C173.973 2.02237 174.365 2.03517 174.978 2.06077C175.591 2.08637 176.223 2.09917 176.874 2.09917C177.257 2.09917 178.09 2.09917 179.374 2.09917C180.676 2.07357 181.557 2.06077 182.017 2.06077C182.917 2.06077 183.817 2.06077 184.717 2.06077C185.637 2.03517 186.336 2.02237 186.815 2.02237C187.274 2.02237 187.801 2.03517 188.395 2.06077L189.285 2.09917C189.553 2.09917 189.726 2.13757 189.802 2.21437C189.879 2.26557 189.927 2.39357 189.946 2.59837C190.061 4.51837 190.118 6.50237 190.118 8.55037C189.889 8.70397 189.745 8.78077 189.687 8.78077C189.515 8.78077 189.371 8.75517 189.257 8.70398C188.203 6.32317 187.284 4.73597 186.499 3.94237C186.096 3.50717 185.483 3.25117 184.66 3.17437C184.622 3.17437 184.468 3.17437 184.2 3.17437C183.951 3.17437 183.606 3.17437 183.166 3.17437C182.745 3.14877 182.285 3.13597 181.787 3.13597C180.523 3.13597 179.718 3.16157 179.374 3.21278C179.374 3.26397 179.355 3.45597 179.316 3.78877C179.297 4.09597 179.278 4.33917 179.259 4.51837C179.201 5.90077 179.173 7.85917 179.173 10.3936V14.1568H179.632C180.647 14.1568 181.433 14.0544 181.988 13.8496C183.041 13.44 183.779 12.7616 184.2 11.8144C184.219 11.7888 184.344 11.0336 184.574 9.54877C184.689 9.47197 184.842 9.43358 185.033 9.43358C185.187 9.43358 185.34 9.48478 185.493 9.58718C185.301 12.6592 185.206 14.5408 185.206 15.232C185.206 15.7952 185.234 16.7552 185.292 18.112C185.349 19.4688 185.378 20.3008 185.378 20.608C185.206 20.736 185.052 20.8 184.918 20.8C184.746 20.8 184.593 20.7488 184.459 20.6464C184.459 20.6208 184.44 20.3392 184.401 19.8016C184.363 19.2384 184.315 18.752 184.258 18.3424C184.2 17.9072 184.133 17.6128 184.057 17.4592C183.731 16.768 183.214 16.2176 182.505 15.808C181.892 15.4496 181.078 15.2704 180.063 15.2704H179.144V24.0256C179.144 25.1008 179.249 25.984 179.46 26.6752C179.785 27.6736 180.149 28.224 180.552 28.3264C180.858 28.4288 181.49 28.4928 182.448 28.5184H185.665C186.757 28.5184 187.475 28.3776 187.82 28.096C188.241 27.7632 188.759 27.0464 189.371 25.9456C189.984 24.8448 190.521 23.6032 190.98 22.2208C191.114 22.1696 191.268 22.144 191.44 22.144C191.631 22.144 191.775 22.1824 191.871 22.2592C191.89 22.4896 191.9 22.8608 191.9 23.3728Z" fill="white"/>
</svg>
